<svg xmlns="http://www.w3.org/2000/svg" xmlns:xlink="http://www.w3.org/1999/xlink" width="190.54999" height="340.34818"><defs><linearGradient id="c"><stop offset="0" stop-color="#fff"/><stop offset="1" stop-color="#333"/></linearGradient><linearGradient id="b"><stop offset="0" stop-color="#b3b3eb" stop-opacity="0"/><stop offset="1"/></linearGradient><linearGradient id="a"><stop offset="0" stop-color="#333"/><stop offset="1" stop-color="#fff"/></linearGradient><linearGradient id="h" x1="193.62866" x2="193.62814" y1="161.64732" y2="162.41747" gradientTransform="scale(.66368 1.50674)" gradientUnits="userSpaceOnUse" spreadMethod="reflect" xlink:href="#a"/><linearGradient id="d"><stop offset="0" stop-color="#b3b3eb" stop-opacity="0"/><stop offset="1"/></linearGradient><linearGradient id="e"><stop offset="0" stop-color="#fff"/><stop offset="1" stop-color="#333"/></linearGradient><radialGradient id="i" cx="158.02565" cy="169.19684" r="31.162628" fx="158.02565" fy="169.19684" gradientTransform="scale(.66804 1.49692)" gradientUnits="userSpaceOnUse" spreadMethod="reflect" xlink:href="#b"/><radialGradient id="f" cx="85.527977" cy="170.14417" r="252.08325" fx="85.527977" fy="170.14417" gradientTransform="matrix(.72965 0 0 1.37052 -22.308518 -183.14252)" gradientUnits="userSpaceOnUse" spreadMethod="reflect" xlink:href="#c"/><radialGradient id="g" cx="193.40065" cy="181.62012" r="68.141403" fx="193.40065" fy="181.62012" gradientTransform="scale(.67783 1.47529)" gradientUnits="userSpaceOnUse" spreadMethod="reflect" xlink:href="#c"/></defs><path fill="url(#f)" fill-rule="evenodd" stroke="#000" stroke-width="1.12500405" d="M95.287282 329.78568c-73.23963 0-84.31263-65.0183-83.55509-85.6175h0c1.12756-19.4293 2.06543-97.586-1.16969-163.397199.82433-71.9241003 55.77251-70.2049 84.71258-70.2049 28.939898 0 83.888098-1.7192003 84.712398 70.2049-3.2351 65.811199-2.2972 143.967899-1.1697 163.392999h0c.7576 20.5992-10.3154 85.6175-83.554998 85.6175" font-size="12"/><path fill="url(#g)" fill-rule="evenodd" d="M133.75 254.93353a15.9375 34.6875 0 11-31.875 0 15.9375 34.6875 0 1131.875 0z" transform="matrix(.9804 0 0 1.24324 -20.310969 -245.46588)"/><path fill="none" stroke="#000" stroke-width="1.25" d="M95.264882 10.989881V129.56808" font-size="12"/><path fill="url(#h)" fill-rule="evenodd" d="M129.375 257.12103a11.5625 26.25 0 11-23.125 0 11.5625 26.25 0 1123.125 0z" transform="translate(-22.308518 -186.26754)"/><path fill="url(#i)" fill-rule="evenodd" stroke="#000" stroke-width=".55000001" d="M129.375 257.12103a11.5625 26.25 0 11-23.125 0 11.5625 26.25 0 1123.125 0z" transform="translate(-22.308518 -186.26754)"/><path fill="none" stroke="#000" stroke-linecap="round" stroke-width="1.25" d="M95.049082 129.50858c-82.34601 0-80.16141 3.297-82.62234 3.922"/><path fill="none" stroke="#000" stroke-linecap="round" stroke-width="1.25" d="M95.264882 129.50528c83.169398 0 82.881998 4.6673 82.881998 4.6673" font-size="12"/><path fill="#ffa507" fill-opacity=".64171125" fill-rule="evenodd" d="M89.585863 10.81248c-29.88569.07452-78.22719 2.789906-79 70.21875.8429 17.146806 1.40142 35.12386 1.75 52.6875l.125-.0312c2.45595-.62373.31823-3.9242 82.15625-3.9375v-32.5c-5.96182-1.050322-10.65625-12.351813-10.65625-26.15625s4.69443-25.105928 10.65625-26.15625v-34.125c-1.6139-.000861-3.27839-.0044-5.03125 0z" font-size="12"/></svg>